<svg width="24" height="24" viewBox="0 0 24 24" fill="none" xmlns="http://www.w3.org/2000/svg">
<path d="M15.7195 14.6835C17.9235 13.3415 19.3614 10.9457 19.3614 8.16682C19.3614 3.95009 15.9113 0.5 11.6945 0.5C7.47782 0.5 4.02773 3.95009 4.02773 8.16682C4.02773 10.9448 5.46557 13.3415 7.66959 14.6835C3.83641 16.1208 0.961186 19.475 0.19455 23.5H2.11137C3.06977 19.0915 6.99884 15.8332 11.6945 15.8332C16.3903 15.8332 20.3193 19.0915 21.2777 23.5H23.1945C22.4279 19.3792 19.5531 16.025 15.7195 14.6835ZM5.94455 8.16682C5.94455 5.00438 8.53212 2.41682 11.6945 2.41682C14.857 2.41682 17.445 5.00438 17.445 8.16682C17.445 11.3292 14.857 13.9168 11.6945 13.9168C8.53212 13.9168 5.94455 11.3292 5.94455 8.16682Z" fill="#575757"/>
</svg>
