<svg width="28" height="23" viewBox="0 0 28 23" fill="none" xmlns="http://www.w3.org/2000/svg">
<path d="M9.23499 16.785H23.6094C23.9661 16.785 24.2802 16.5486 24.376 16.1995L27.5703 4.92031C27.6395 4.67862 27.5916 4.41543 27.4425 4.21133C27.2935 4.00723 27.0539 3.88907 26.8037 3.88907H7.28646L6.71681 1.29486C6.63163 0.934995 6.30688 0.671814 5.93421 0.671814H1.14275C0.700875 0.671814 0.344177 1.03167 0.344177 1.47747C0.344177 1.92327 0.700875 2.28313 1.14275 2.28313H5.29535C5.3965 2.74504 8.0318 14.6849 8.18087 15.3724C8.40447 16.4358 8.89426 16.785 9.23499 16.785ZM25.6377 5.56484L22.9332 15.1146H9.85256L7.74964 5.56484H25.6377Z" fill="#575757"/>
<path d="M21.9375 22.0593C23.1107 22.0593 24.0617 21.0999 24.0617 19.9163C24.0617 18.7327 23.1107 17.7733 21.9375 17.7733C20.7643 17.7733 19.8133 18.7327 19.8133 19.9163C19.8133 21.0999 20.7643 22.0593 21.9375 22.0593Z" fill="#575757"/>
<path d="M10.9333 22.0593C12.1065 22.0593 13.0575 21.0999 13.0575 19.9163C13.0575 18.7327 12.1065 17.7733 10.9333 17.7733C9.76012 17.7733 8.80908 18.7327 8.80908 19.9163C8.80908 21.0999 9.76012 22.0593 10.9333 22.0593Z" fill="#575757"/>
</svg>
