<svg width="21" height="20" viewBox="0 0 21 20" fill="none" xmlns="http://www.w3.org/2000/svg">
<g clip-path="url(#clip0_1_27)">
<path d="M20.1929 18.1096L13.7836 11.7003C14.6771 10.4843 15.1625 9.01659 15.17 7.50765C15.175 6.06713 14.752 4.6576 13.9547 3.45779C13.1575 2.25799 12.0219 1.32197 10.692 0.768427C9.36205 0.214887 7.89769 0.0687638 6.4846 0.348589C5.07151 0.628415 3.77335 1.32158 2.75474 2.34019C1.73613 3.3588 1.04297 4.65696 0.76314 6.07004C0.483315 7.48313 0.629437 8.94749 1.18298 10.2774C1.73652 11.6074 2.67254 12.7429 3.87234 13.5402C5.07215 14.3374 6.48168 14.7604 7.9222 14.7555C9.43682 14.7515 10.9109 14.2659 12.1314 13.369L18.5407 19.7783L20.1929 18.1096ZM2.86616 7.50765C2.85465 6.50926 3.13998 5.52995 3.68594 4.69398C4.2319 3.85801 5.01389 3.20306 5.93268 2.81223C6.85147 2.42141 7.86565 2.31232 8.84654 2.49881C9.82743 2.68531 10.7308 3.15897 11.4421 3.85972C12.1533 4.56046 12.6404 5.45669 12.8415 6.43469C13.0425 7.41269 12.9486 8.42839 12.5715 9.35289C12.1943 10.2774 11.5511 11.069 10.7234 11.6274C9.89561 12.1857 8.92066 12.4856 7.9222 12.489C6.59214 12.4956 5.31356 11.9753 4.36608 11.0418C3.4186 10.1084 2.87931 8.83767 2.86616 7.50765Z" fill="#575757"/>
</g>
<defs>
<clipPath id="clip0_1_27">
<rect width="19.56" height="19.56" fill="white" transform="translate(0.634552 0.220001)"/>
</clipPath>
</defs>
</svg>
