<svg width="16" height="18" viewBox="0 0 16 18" fill="none" xmlns="http://www.w3.org/2000/svg">
<path d="M2.09375 2.25H5.1875V1.6875C5.1875 0.75702 5.94452 0 6.875 0H9.125C10.0555 0 10.8125 0.75702 10.8125 1.6875V2.25H13.9062C14.6817 2.25 15.3125 2.88084 15.3125 3.65625V5.625C15.3125 5.93564 15.0606 6.1875 14.75 6.1875H14.4426L13.9566 16.3928C13.9137 17.294 13.1733 18 12.2711 18H3.72894C2.82665 18 2.08626 17.294 2.04337 16.3928L1.55741 6.1875H1.25C0.93936 6.1875 0.6875 5.93564 0.6875 5.625V3.65625C0.6875 2.88084 1.31834 2.25 2.09375 2.25ZM9.6875 1.6875C9.6875 1.37735 9.43515 1.125 9.125 1.125H6.875C6.56485 1.125 6.3125 1.37735 6.3125 1.6875V2.25H9.6875V1.6875ZM14.1875 3.65625C14.1875 3.50118 14.0613 3.375 13.9062 3.375H2.09375C1.93868 3.375 1.8125 3.50118 1.8125 3.65625V5.0625C1.98586 5.0625 13.4692 5.0625 14.1875 5.0625V3.65625ZM3.16711 16.3393C3.18141 16.6397 3.42821 16.875 3.72894 16.875H12.2711C12.5718 16.875 12.8186 16.6397 12.8329 16.3393L13.3163 6.1875H2.68367L3.16711 16.3393Z" fill="#B3B3B3"/>
<path d="M8 15.75C7.68936 15.75 7.4375 15.4981 7.4375 15.1875V7.875C7.4375 7.56436 7.68936 7.3125 8 7.3125C8.31064 7.3125 8.5625 7.56436 8.5625 7.875V15.1875C8.5625 15.4981 8.31068 15.75 8 15.75Z" fill="#B3B3B3"/>
<path d="M5.1875 15.75C4.87686 15.75 4.625 15.4981 4.625 15.1875V7.875C4.625 7.56436 4.87686 7.3125 5.1875 7.3125C5.49814 7.3125 5.75 7.56436 5.75 7.875V15.1875C5.75 15.4981 5.49818 15.75 5.1875 15.75Z" fill="#B3B3B3"/>
<path d="M10.8125 15.75C10.5019 15.75 10.25 15.4981 10.25 15.1875V7.875C10.25 7.56436 10.5019 7.3125 10.8125 7.3125C11.1231 7.3125 11.375 7.56436 11.375 7.875V15.1875C11.375 15.4981 11.1232 15.75 10.8125 15.75Z" fill="#B3B3B3"/>
</svg>
