<svg width="24" height="24" viewBox="0 0 24 24" fill="none" xmlns="http://www.w3.org/2000/svg">
<path d="M13.1527 12.5L18.7613 6.8911C18.9156 6.7367 19.0007 6.53071 19.0009 6.31106C19.0009 6.09129 18.9158 5.88506 18.7613 5.7309L18.2698 5.23953C18.1153 5.08476 17.9093 5 17.6894 5C17.4699 5 17.2639 5.08476 17.1094 5.23953L11.5007 10.8481L5.89185 5.23953C5.73758 5.08476 5.53147 5 5.3117 5C5.09217 5 4.88606 5.08476 4.73178 5.23953L4.24005 5.7309C3.92003 6.05092 3.92003 6.57144 4.24005 6.8911L9.8488 12.5L4.24005 18.1087C4.08565 18.2633 4.00064 18.4693 4.00064 18.6889C4.00064 18.9086 4.08565 19.1146 4.24005 19.2691L4.73166 19.7605C4.88594 19.9151 5.09217 20 5.31157 20C5.53134 20 5.73745 19.9151 5.89173 19.7605L11.5006 14.1518L17.1092 19.7605C17.2638 19.9151 17.4698 20 17.6893 20H17.6895C17.9092 20 18.1152 19.9151 18.2697 19.7605L18.7612 19.2691C18.9155 19.1147 19.0006 18.9086 19.0006 18.6889C19.0006 18.4693 18.9155 18.2633 18.7612 18.1088L13.1527 12.5Z" fill="#48423D"/>
</svg>
