<svg width="188" height="27" viewBox="0 0 188 27" fill="none" xmlns="http://www.w3.org/2000/svg">
<path d="M7.49825 25.5449C6.94885 25.5449 6.48619 25.0955 6.48619 24.5618V6.58424H2.20662C1.65721 6.58424 1.19456 6.13481 1.19456 5.6011V3.41009C1.19456 2.87638 1.65721 2.42694 2.20662 2.42694H15.9128C16.4622 2.42694 16.9249 2.87638 16.9249 3.41009V5.57301C16.9249 6.10672 16.4622 6.55615 15.9128 6.55615H11.4597V24.5337C11.4597 25.0674 10.9971 25.5168 10.4477 25.5168H7.49825V25.5449ZM35.2576 26.1348C29.1274 26.1348 26.0045 23.073 26.0045 17.0056C26.0045 13.3258 27.1322 10.6573 29.3588 9.05615C31.1516 7.76402 33.1468 7.59548 34.1877 7.59548C37.1661 7.59548 42.1975 8.71908 42.1975 16.191C42.1975 17.4269 41.9083 18.5786 39.8842 18.5786H30.9781C31.2961 20.9944 32.7419 22.2022 35.2576 22.2022C36.4432 22.2022 37.7155 21.9775 39.0167 21.5C39.1324 21.4719 39.2481 21.4438 39.3637 21.4438C39.7685 21.4438 40.1734 21.6966 40.3179 22.0899L40.9541 23.8033C41.1276 24.2528 40.9252 24.7584 40.4914 25.0112C39.1324 25.7415 36.7613 26.1348 35.2576 26.1348ZM34.5058 11.2191C31.9901 11.2191 31.2672 13.2977 31.0937 15.0674H37.6288C37.4553 12.3708 36.5299 11.2191 34.5058 11.2191ZM57.7832 25.5449C57.2338 25.5449 56.7712 25.0955 56.7712 24.5618V14.0842C56.7712 11.7809 55.1519 11.4438 54.1976 11.4438C52.4916 11.4438 51.1615 12.0899 50.0916 13.4382C50.1205 13.691 50.1205 13.9719 50.1205 14.2809V24.5618C50.1205 25.0955 49.6578 25.5449 49.1084 25.5449H46.2457C45.6963 25.5449 45.2337 25.0955 45.2337 24.5618V9.53368C45.2337 9.28087 45.3493 9.02806 45.5228 8.83144C45.7252 8.63481 45.9855 8.55054 46.2457 8.55054H48.2409C48.7036 8.55054 49.1084 8.85953 49.2241 9.30896L49.253 9.89885C49.8891 9.22469 51.7109 7.59548 54.9205 7.59548C57.8121 7.59548 61.658 8.26964 61.658 14.0842V24.5618C61.658 25.0955 61.1953 25.5449 60.6459 25.5449H57.7832Z" fill="#5C514E"/>
<path d="M115.991 25.5449C115.442 25.5449 114.979 25.0955 114.979 24.5618V14.0843C114.979 11.7809 113.36 11.4438 112.406 11.4438C110.7 11.4438 109.37 12.0899 108.3 13.4382C108.329 13.691 108.329 13.9719 108.329 14.2809V24.5618C108.329 25.0955 107.866 25.5449 107.316 25.5449H104.454C103.904 25.5449 103.442 25.0955 103.442 24.5618V9.53371C103.442 9.2809 103.557 9.02809 103.731 8.83146C103.933 8.63483 104.194 8.55056 104.454 8.55056H106.449C106.912 8.55056 107.316 8.85955 107.432 9.30899L107.49 9.89887C108.126 9.22472 109.948 7.56741 113.157 7.56741C116.049 7.56741 119.895 8.24157 119.895 14.0562V24.5337C119.895 25.0674 119.432 25.5169 118.883 25.5169H115.991V25.5449Z" fill="#70A62D"/>
<path d="M72.4436 26.1348C69.3785 26.1348 64.2025 24.927 64.2025 16.8932C64.2025 13.691 65.1278 11.2472 66.9495 9.58988C68.9158 7.8483 71.2869 7.5674 72.5014 7.5674C74.2364 7.5674 75.8268 8.07302 77.0412 9.02808V3.38201C77.0412 2.8483 77.5039 2.39886 78.0533 2.39886H80.916C81.4654 2.39886 81.928 2.8483 81.928 3.38201V24.5337C81.928 24.7865 81.8124 25.0393 81.6389 25.2359C81.4365 25.4326 81.1762 25.5168 80.916 25.5168H78.3425C77.822 25.5168 77.3882 25.1236 77.3304 24.618L77.3015 24.2528C76.4051 25.1236 74.8436 26.1348 72.4436 26.1348ZM73.3111 11.3595C71.2291 11.3595 69.0315 12.8202 69.0315 16.8932C69.0315 18.9157 69.552 22.3146 73.1376 22.3146C74.7279 22.3146 76.2894 21.4438 77.0412 20.0955V13.1011C76.2027 11.9494 74.9593 11.3595 73.3111 11.3595Z" fill="#5C514E"/>
<path d="M151.818 25.5449C151.269 25.5449 150.806 25.0955 150.806 24.5618V14C150.806 12.3708 150.199 11.5842 148.926 11.5842C147.163 11.5842 146.208 12.5955 145.717 13.4382C145.746 13.691 145.746 13.9719 145.746 14.2809V24.5337C145.746 25.0674 145.283 25.5168 144.734 25.5168H141.813C141.264 25.5168 140.801 25.0674 140.801 24.5337V14C140.801 12.3708 140.194 11.5842 138.95 11.5842C137.562 11.5842 136.464 12.2022 135.712 13.4382C135.741 13.691 135.741 13.9719 135.741 14.2809V24.5337C135.741 25.0674 135.278 25.5168 134.729 25.5168H131.866C131.317 25.5168 130.854 25.0674 130.854 24.5337V9.53368C130.854 9.28087 130.97 9.02806 131.143 8.83144C131.346 8.63481 131.606 8.55054 131.866 8.55054H133.89C134.353 8.55054 134.787 8.85953 134.873 9.30896L134.931 9.95503C136.088 8.43818 137.823 7.62357 139.905 7.62357C142.305 7.62357 143.982 8.41009 144.907 9.95503C146.122 8.382 147.799 7.62357 149.939 7.62357C151.384 7.62357 155.78 7.62357 155.78 13.8876V24.5618C155.78 25.0955 155.317 25.5449 154.768 25.5449H151.818ZM183.047 25.9663C180.387 25.9663 177.235 24.9269 177.235 19.955V3.41009C177.235 2.87638 177.698 2.42694 178.247 2.42694H181.11C181.659 2.42694 182.122 2.87638 182.122 3.41009V19.618C182.122 21.0786 182.643 21.9213 183.568 21.9213C183.655 21.9213 183.77 21.9213 183.915 21.8932H184.031C184.435 21.8932 184.811 22.146 184.985 22.5112L185.766 24.3371C185.968 24.8427 185.737 25.4045 185.216 25.6292C184.609 25.8539 183.886 25.9663 183.047 25.9663Z" fill="#70A62D"/>
<path d="M19.672 25.545C19.1226 25.545 18.6599 25.0955 18.6599 24.5618V9.53371C18.6599 9.00001 19.1226 8.55057 19.672 8.55057H22.5636C23.113 8.55057 23.5756 9.00001 23.5756 9.53371V24.5618C23.5756 25.0955 23.113 25.545 22.5636 25.545H19.672Z" fill="#5C514E"/>
<path d="M123.914 25.5449C123.365 25.5449 122.902 25.0955 122.902 24.5618V9.53371C122.902 9 123.365 8.55056 123.914 8.55056H126.806C127.355 8.55056 127.818 9 127.818 9.53371V24.5618C127.818 25.0955 127.355 25.5449 126.806 25.5449H123.914ZM91.9042 26.1348C87.5957 26.1348 84.8197 23.9719 84.8197 20.6292C84.8197 18.4101 86.0342 14.7303 94.1885 14.7303C94.4488 14.7303 94.7958 14.7303 95.5765 14.7584V13.1854C95.5765 12.6798 95.5765 11.5 92.9741 11.5C91.8753 11.5 90.8921 11.6685 89.9379 12.0056C89.8222 12.0337 89.7065 12.0618 89.5909 12.0618C89.3017 12.0618 89.0126 11.9494 88.8391 11.7247L87.3643 10.0955C87.1619 9.87078 87.0752 9.5618 87.133 9.25281C87.1908 8.94382 87.3933 8.69101 87.6824 8.55056C88.9547 7.93258 90.8921 7.56741 93.003 7.56741C95.75 7.56741 100.377 8.26966 100.377 13.0449V24.5337C100.377 25.0674 99.9139 25.5169 99.3645 25.5169H96.8488C96.3862 25.5169 96.0102 25.236 95.8657 24.8146C94.5355 25.7135 93.2054 26.1348 91.9042 26.1348ZM94.5934 17.9607C91.268 17.9607 89.7644 18.7191 89.7644 20.3764C89.7644 21.7809 90.6319 22.4551 92.3957 22.4551C93.7837 22.4551 94.7958 22.0337 95.5765 21.6124V17.9888C95.1138 17.9607 94.8247 17.9607 94.5934 17.9607ZM165.842 26.1348C161.534 26.1348 158.758 23.9719 158.758 20.6292C158.758 18.4101 159.973 14.7303 168.127 14.7303C168.387 14.7303 168.734 14.7303 169.515 14.7584V13.1854C169.515 12.6798 169.515 11.5 166.912 11.5C165.814 11.5 164.83 11.6685 163.876 12.0056C163.761 12.0337 163.645 12.0618 163.529 12.0618C163.24 12.0618 162.951 11.9494 162.777 11.7247L161.303 10.0955C161.1 9.87078 161.014 9.5618 161.071 9.25281C161.129 8.94382 161.332 8.69101 161.621 8.55056C162.893 7.93258 164.83 7.56741 166.941 7.56741C169.688 7.56741 174.315 8.26966 174.315 13.0449V24.5337C174.315 25.0674 173.852 25.5169 173.303 25.5169H170.816C170.382 25.5169 169.977 25.236 169.833 24.8146C168.474 25.7135 167.144 26.1348 165.842 26.1348ZM168.532 17.9607C165.206 17.9607 163.703 18.7191 163.703 20.3764C163.703 21.7809 164.57 22.4551 166.334 22.4551C167.722 22.4551 168.705 22.0337 169.515 21.6124V17.9888C169.052 17.9607 168.763 17.9607 168.532 17.9607Z" fill="#70A62D"/>
<path d="M21.1177 7.08988C19.7587 7.08988 18.6309 6.05055 18.6309 4.75842C18.6309 3.49437 19.7587 2.45505 21.1177 2.45505C22.4768 2.45505 23.6045 3.52246 23.6045 4.75842C23.6045 6.02246 22.5057 7.08988 21.1177 7.08988Z" fill="#5C514E"/>
<path d="M125.36 7.11799C124.001 7.11799 122.873 6.07866 122.873 4.78653C122.873 3.52248 124.001 2.48315 125.36 2.48315C126.719 2.48315 127.847 3.55057 127.847 4.78653C127.847 6.07866 126.719 7.11799 125.36 7.11799Z" fill="#70A62D"/>
</svg>
